<svg width="256" height="256" viewBox="0 0 256 256" fill="none" xmlns="http://www.w3.org/2000/svg">
<g clip-path="url(#clip0_1_132)">
<path fill-rule="evenodd" clip-rule="evenodd" d="M0 0H256V256H0V0Z" fill="#004A87"/>
<path fill-rule="evenodd" clip-rule="evenodd" d="M210.369 211.97L245 41.4947L0 38V213.663L203.264 214L210.369 211.97Z" fill="white"/>
<path fill-rule="evenodd" clip-rule="evenodd" d="M217.395 218H0V210.866C54.0672 190.123 207.514 131.194 209.956 129.381C209.956 129.381 230.835 98.066 217.994 87.4025C213.714 83.8836 210.708 82.8934 186.317 83.0355C186.317 83.0355 187.392 76.3632 152.55 70.2597C149.75 69.7874 18.2886 43.0068 0 39.2745V38.0305L256 38L217.395 218ZM0 79.5978H109.711C111.933 79.74 182.364 77.8104 177.428 91.6324H66.7494L84.0755 144.879C99.4253 136.841 152.735 115.803 180.572 114.493C189.701 114.071 195.062 114.239 195.267 117.083C195.328 118.068 193.08 118.951 187.704 119.916C173.906 122.353 150.159 129.594 144.62 131.468C115.564 141.319 84.1318 156.654 61.3786 168.232C55.337 171.294 25.7587 185.751 0.01536 198.308V79.608L0 79.5978ZM196.035 92.4347C205.747 92.4347 212.751 93.6534 211.804 101.778C211.128 107.516 204.943 118.748 203.561 120.226C202.194 121.724 199.834 121.952 201.037 118.55C204.119 109.75 207.181 103.022 203.392 101.834C196.209 99.5589 172.344 104.525 159.094 104.525C153.329 104.525 152.673 103.728 152.724 102.367C152.776 100.833 153.851 100.437 157.896 100.102C162.053 99.7316 171.003 98.8328 174.433 97.1418V97.1825C176.635 96.0755 177.311 95.3646 178.171 94.2627C179.113 93.0085 179.789 92.4651 180.577 92.4651H196.004L196.035 92.4347Z" fill="#004A87"/>
</g>
<defs>
<clipPath id="clip0_1_132">
<rect width="256" height="256" fill="white"/>
</clipPath>
</defs>
</svg>
