<svg width="86" height="57" viewBox="0 0 86 57" fill="none" xmlns="http://www.w3.org/2000/svg">
<g clip-path="url(#clip0_3867_4783)">
<path d="M3.58026 0H82.4196C84.3952 0 86 1.59539 86 3.55952V53.4405C86 55.4047 84.3953 57 82.4196 57H3.58026C1.60469 57.0081 0 55.4127 0 53.4405V3.55952C0 1.59529 1.60469 0 3.58026 0Z" fill="#E9AF58"/>
<path d="M86 20.4248H0V29.45H86V20.4248Z" fill="#CD5747"/>
<path d="M47.1894 19.9502H38.7096C27.957 23.5696 20.1787 33.8629 20.1787 45.9706V50.1697H20.3181L24.7718 46.5739L29.0381 50.0225V45.9706C29.0381 37.2972 34.9765 30.0012 42.9519 28.0585C50.9274 30.0012 56.8656 37.2972 56.8656 45.9706V50.0225L61.1322 46.5739L65.5858 50.1697H65.725V45.9706C65.7155 33.8629 57.9371 23.5696 47.1894 19.9502Z" fill="#EC856F"/>
<path d="M48.0447 0H37.9553V57H48.0447V0Z" fill="#CD5747"/>
<path d="M63.1894 9.67692L46.6033 20.4249L64.8603 19.8333V10.5566C64.8603 9.71587 63.9053 9.21285 63.1894 9.67692ZM22.3741 9.67692L39.3966 20.425L20.6592 19.8334V10.5566C20.6592 9.71587 21.6394 9.21285 22.3741 9.67692Z" fill="#CD5747"/>
<path d="M68.8006 11.5228L47.5642 20.0572V29.4499H71.1062V13.0791C71.1062 11.8909 69.9039 11.0794 68.8006 11.5228ZM16.7662 11.5228L38.4358 20.0572V29.4499H14.4136V13.0791C14.4136 11.8909 15.6403 11.0794 16.7662 11.5228Z" fill="#EC856F"/>
<path d="M69.0242 35.097L47.5643 29.4502H71.1062V33.3615C71.1062 34.5227 70.083 35.3756 69.0242 35.097ZM16.5378 35.097L38.4358 29.4502H14.4136V33.3615C14.4136 34.5227 15.4576 35.3756 16.5378 35.097Z" fill="#CD5747"/>
<path d="M47.3119 30.4H38.688C38.0195 30.4 37.4749 29.8704 37.4749 29.2201V20.6549C37.4749 20.0048 38.0195 19.4751 38.688 19.4751H47.3119C47.9804 19.4751 48.525 20.0047 48.525 20.655V29.228C48.525 29.8783 47.9886 30.4 47.3119 30.4Z" fill="#DE6A5A"/>
</g>
<defs>
<clipPath id="clip0_3867_4783">
<rect width="86" height="57" rx="8" fill="white"/>
</clipPath>
</defs>
</svg>
